# xmcd CD database file
#
# Track frame offsets:
#	183
#	20408
#	43433
#	66783
#	92133
#	104283
#	110533
#	133983
#	154458
#	173658
#	197908
#	214533
#	238495
#
# Disc length: 3496 seconds
#
# Revision: 2
# Processed by: cddbd v1.5.2PL0 Copyright (c) Steve Scherf et al.
# Submitted via: CDex 1.51
#
DISCID=c40da60d
DTITLE=Various Artist - Meditation Reflections - CD 2
DYEAR=1988
DGENRE=New Age
TTITLE0=Dirk Joeres - Au Couvent
TTITLE1=M. Ribaldi - Circles
TTITLE2=M. Schoof - Submarine
TTITLE3=Rosenstein-Wagener - Voyage
TTITLE4=Y. Kawahara - The Cygne
TTITLE5=Dirk Joeres - A la Maniere De Borodin
TTITLE6=M. Ribaldi - Chaiwa
TTITLE7=M. Schoof - Galaxy
TTITLE8=Y. Kawahara - Chanson Triste
TTITLE9=Rosenstein-Wagener - Echoes
TTITLE10=H. Ockenfels - Reverie
TTITLE11=M. Ribaldi - Spring
TTITLE12=M. Schoof - Zen
EXTD=YEAR: 1988
EXTT0=Borodin
EXTT1=Bodil/Wagener
EXTT2=Buschkötter/Schoof
EXTT3=Bodil/Wagener
EXTT4=Saint Saens /Y. Kawahara
EXTT5=Ravel
EXTT6=Bodil/Wagener
EXTT7=Buschkötter/Schoof
EXTT8=Koussevitzky
EXTT9=Bodil
EXTT10=Cadler/Mohan
EXTT11=Bodil
EXTT12=Schoof/Van t´Hof
PLAYORDER=
